<mxfile host="app.diagrams.net" agent="Mozilla/5.0 (Windows NT 10.0; Win64; x64) AppleWebKit/537.36 (KHTML, like Gecko) Chrome/138.0.0.0 Safari/537.36 Edg/138.0.0.0" version="28.0.7">
  <diagram name="Page-1" id="YBHiVr3L9OsquA38oMYF">
    <mxGraphModel dx="994" dy="1670" grid="1" gridSize="10" guides="1" tooltips="1" connect="1" arrows="1" fold="1" page="1" pageScale="1" pageWidth="850" pageHeight="1100" math="0" shadow="0">
      <root>
        <mxCell id="0" />
        <mxCell id="1" parent="0" />
        <mxCell id="XeWI0wC6OOujfom6qwsz-1" value="" style="rounded=0;whiteSpace=wrap;html=1;" parent="1" vertex="1">
          <mxGeometry x="130" y="-1080" width="540" as="geometry" />
        </mxCell>
        <mxCell id="mBV8GOBNypIKXGZ9AQan-11" style="edgeStyle=orthogonalEdgeStyle;rounded=0;orthogonalLoop=1;jettySize=auto;html=1;" edge="1" parent="1" source="mBV8GOBNypIKXGZ9AQan-1">
          <mxGeometry relative="1" as="geometry">
            <mxPoint x="400" y="-950" as="targetPoint" />
          </mxGeometry>
        </mxCell>
        <mxCell id="mBV8GOBNypIKXGZ9AQan-1" value="plan" style="ellipse;whiteSpace=wrap;html=1;" vertex="1" parent="1">
          <mxGeometry x="340" y="-1070" width="120" height="80" as="geometry" />
        </mxCell>
        <mxCell id="mBV8GOBNypIKXGZ9AQan-13" style="edgeStyle=orthogonalEdgeStyle;rounded=0;orthogonalLoop=1;jettySize=auto;html=1;" edge="1" parent="1" source="mBV8GOBNypIKXGZ9AQan-12" target="mBV8GOBNypIKXGZ9AQan-14">
          <mxGeometry relative="1" as="geometry">
            <mxPoint x="400" y="-830" as="targetPoint" />
          </mxGeometry>
        </mxCell>
        <mxCell id="mBV8GOBNypIKXGZ9AQan-12" value="develop" style="ellipse;whiteSpace=wrap;html=1;" vertex="1" parent="1">
          <mxGeometry x="340" y="-950" width="120" height="80" as="geometry" />
        </mxCell>
        <mxCell id="mBV8GOBNypIKXGZ9AQan-15" style="edgeStyle=orthogonalEdgeStyle;rounded=0;orthogonalLoop=1;jettySize=auto;html=1;" edge="1" parent="1" source="mBV8GOBNypIKXGZ9AQan-14" target="mBV8GOBNypIKXGZ9AQan-16">
          <mxGeometry relative="1" as="geometry">
            <mxPoint x="400" y="-710" as="targetPoint" />
          </mxGeometry>
        </mxCell>
        <mxCell id="mBV8GOBNypIKXGZ9AQan-14" value="build" style="ellipse;whiteSpace=wrap;html=1;" vertex="1" parent="1">
          <mxGeometry x="340" y="-830" width="120" height="80" as="geometry" />
        </mxCell>
        <mxCell id="mBV8GOBNypIKXGZ9AQan-19" style="edgeStyle=orthogonalEdgeStyle;rounded=0;orthogonalLoop=1;jettySize=auto;html=1;entryX=0.5;entryY=0;entryDx=0;entryDy=0;" edge="1" parent="1" source="mBV8GOBNypIKXGZ9AQan-16" target="mBV8GOBNypIKXGZ9AQan-18">
          <mxGeometry relative="1" as="geometry" />
        </mxCell>
        <mxCell id="mBV8GOBNypIKXGZ9AQan-16" value="test" style="ellipse;whiteSpace=wrap;html=1;" vertex="1" parent="1">
          <mxGeometry x="340" y="-700" width="120" height="80" as="geometry" />
        </mxCell>
        <mxCell id="mBV8GOBNypIKXGZ9AQan-18" value="relese" style="ellipse;whiteSpace=wrap;html=1;" vertex="1" parent="1">
          <mxGeometry x="340" y="-590" width="120" height="80" as="geometry" />
        </mxCell>
      </root>
    </mxGraphModel>
  </diagram>
</mxfile>
